<?xml version="1.0" encoding="utf-8"?>
<!-- Generator: Adobe Illustrator 22.1.0, SVG Export Plug-In . SVG Version: 6.00 Build 0)  -->
<svg version="1.1" id="Layer_1" xmlns="http://www.w3.org/2000/svg" xmlns:xlink="http://www.w3.org/1999/xlink" x="0px" y="0px"
	 viewBox="0 0 715 586.7" style="enable-background:new 0 0 715 586.7;" xml:space="preserve">
<style type="text/css">
	.st0{fill:#FFFFFF;}
</style>
<g>
	<path class="st0" d="M0,10.7c2.5-4,5.6-7.5,9.7-9.9C10.4,0.3,11.4,0,12.3,0c30,0,60,0,90,0c0.7,0,1.5,0.5,2.2,0.8
		c1.1,0.4,2.3,1,3.4,1.1c20.8,1.3,33.4,14,37.7,29.4c3.5,12.7,6.7,25.5,10.3,38.2c11.5,40.9,23.1,81.8,34.6,122.6
		c5.6,20,11.1,40,16.5,60c6,22,12,44.1,18,66.1c0.6,2.4,1.4,4.7,2.1,7c0.5,1.7,1.4,2.7,3.3,2.4c0.4-0.1,0.8,0,1.2,0
		c81.6,0,163.2,0,244.8,0c25.9,0,51.8,0.1,77.7,0c4.5,0,9.1-0.4,13.6-0.7c6.6-0.5,11.5-3.9,14.7-9.4c4.6-7.8,9.2-15.7,13-24
		c12-26.2,23.6-52.5,35.4-78.8c15.9-35.4,31.7-70.7,47.6-106.1c2.9-6.5,5.6-13.1,6.5-20.2c0.4-3.1,0.5-6.3,0.3-9.4
		c-0.3-3.5-2.2-5.3-5.7-5.7c-3.6-0.4-7.2-0.6-10.8-0.6c-129.2,0-258.3,0-387.5,0.1c-19.9,0-39.8,0.3-59.6,0.7
		c-5.3,0.1-9.9-1.3-13.6-5c-6-6-6.7-19.6,5.8-24.4c1.1-0.4,2.4-0.4,3.6-0.4c64.4,0,128.8,0,193.2,0c69.7-0.1,139.3-0.3,209-0.5
		c7.7,0,15.3,0.5,23,0.5c10.9,0,21.8-0.2,32.6-0.3c6.5,0,12.9,1,19,3.5c9.7,4,15.7,11.3,19,21.1c1.1,3.2,2,6.4,1.8,9.8
		c0,0.3,0.2,0.7,0.3,1.1c0,1.4,0,2.9,0,4.3c-0.1,0.4-0.3,0.7-0.3,1.1c0.3,5.4-1.1,10.5-2.1,15.8c-1.9,9.2-6.1,17.4-9.9,25.9
		c-18.9,42.4-37.6,84.9-56.4,127.3c-7.1,16-14.3,32-21.7,47.9c-5.3,11.3-11,22.4-17.6,33c-6.9,11.1-16.6,18.4-29.5,20.9
		c-2.8,0.5-5.6,0.8-8.4,1.1c-0.7,0.1-1.5,0.2-2.1,0.5c-2.3,0.9-4.6,1.2-7.1,0.3c-1.4-0.5-3.2-0.3-4.8-0.3c-22.3,0-44.6,0-66.8,0
		c-83.2,0-166.3,0-249.5,0c-0.6,0-1.2,0-1.8,0c-1,0.1-1.5,0.6-1.1,1.7c4,10.8,8.6,21.3,16.8,29.7c6.2,6.4,13.1,11.7,22.1,13.6
		c3.4,0.7,6.9,1,10.4,1c83.6,0.1,167.1,0,250.7,0c8.8,0,17.6,0,26.3,0.1c1.7,0,3.3,0.2,5,0.4c4.5,0.7,7.8,3.1,9.8,7.2
		c0.8,1.8,1.7,3.5,2.3,5.4c0.3,1,0.4,2.2,0.1,3.2c-0.6,2-1.5,3.9-2.4,5.8c-2.8,5.6-7.8,7.6-13.7,7.6c-1.9,0-3.8,0-5.7,0
		c-58.5,0-117,0-175.5,0c-31.3,0-62.6,0-93.8-0.1c-15.7,0-30.5-3.3-43.6-12.6c-11.8-8.4-20.9-19-27.8-31.6
		c-5.8-10.6-9.4-22-12.6-33.5c-10-35.6-19.9-71.2-30.2-106.8c-15.2-52.4-30.8-104.8-46.2-157.2c-3.6-12.2-7.2-24.5-10.8-36.7
		c-1.2-4.2-3.4-7.8-6.5-10.9c-2.4-2.4-5-4.8-7.6-7c-4.5-3.7-9.8-5.2-15.5-6.1c-12-1.7-23.9-0.6-35.9-0.9
		c-12.4-0.3-24.9-0.1-37.3-0.1c-6.2,0-10-2.6-12.4-8.3c-0.3-0.8-1-1.4-1.6-2C0,16.3,0,13.5,0,10.7z"/>
	<path class="st0" d="M554.7,586.7c-3.3-0.7-6.7-1.4-10-2.1c-5.7-1.2-11.1-3.2-16.1-6c-7.2-4.1-14.4-8.2-19.7-14.8
		c-12.4-15.5-18.3-33-17-53c1.7-26.3,22.5-56.5,57.6-62c23-3.6,43.3,2.5,60,18.8c11.1,10.8,18.3,23.9,20.5,39.4
		c0.3,2.2,0.9,4.5,1.3,6.7c0.7,3.8-0.4,7.4-1,11c-1.6,10.4-4.7,20.2-10.2,29.2c-6.1,10-14.4,17.6-24.5,23.5c-8.7,5.1-18,8.1-27.9,9
		c-0.3,0-0.5,0.2-0.8,0.3C562.9,586.7,558.8,586.7,554.7,586.7z M561.3,558.2c20.7,0.4,41-17.1,40.9-43.7
		c-0.1-17.9-19.4-38.9-40.2-38.6c-27.6,0.3-42.4,22.2-42.3,40.9C519.9,540,538.1,558.2,561.3,558.2z"/>
	<path class="st0" d="M271.7,586.7c-2.1-0.3-4.3-0.5-6.4-0.8c-11.3-2.1-21.4-6.8-30.4-13.9c-15.5-12.2-23.9-28.1-26.3-47.6
		c-4.4-36.8,21.6-65.2,46.3-73c26.5-8.4,50.3-3.2,70.7,15.5c11.8,10.8,18.5,24.6,20.9,40.5c0.5,3.2,0.2,6.4,0.5,9.6
		c1.3,14.8-4.3,27.5-12.1,39.5c-9.1,13.9-22.2,22.6-37.8,27.7c-3.9,1.3-8.2,1.6-12.2,2.3c-0.3,0.1-0.6,0.2-0.9,0.3
		C279.9,586.7,275.8,586.7,271.7,586.7z M318.8,516.8c0-22.3-18.4-40.7-40.5-40.8c-22.7-0.1-42,18.2-41.8,40.5
		c0.2,23.5,18,41.6,41.4,41.6C300.5,558.2,318.8,539.7,318.8,516.8z"/>
</g>
</svg>
